<svg width="67" height="67" xmlns="http://www.w3.org/2000/svg">

 <g>
  <title>background</title>
  <rect fill="none" id="canvas_background" height="402" width="582" y="-1" x="-1"/>
 </g>
 <g>
  <title>Layer 1</title>
  <path id="svg_1" fill-rule="evenodd" clip-rule="evenodd" fill="#d0d0d0" d="m42.271,26.578l0,-0.006c0.502,0 1.005,0.01 1.508,-0.002c0.646,-0.017 1.172,-0.57 1.172,-1.217c0,-0.963 0,-1.927 0,-2.89c0,-0.691 -0.547,-1.24 -1.236,-1.241c-0.961,0 -1.922,-0.001 -2.883,0c-0.688,0.001 -1.236,0.552 -1.236,1.243c-0.001,0.955 -0.004,1.91 0.003,2.865c0.001,0.143 0.028,0.291 0.073,0.426c0.173,0.508 0.639,0.82 1.209,0.823c0.463,0 0.927,-0.001 1.39,-0.001zm-9.271,1.239c-3.384,-0.002 -6.135,2.721 -6.182,6.089c-0.049,3.46 2.72,6.201 6.04,6.272c3.454,0.074 6.248,-2.686 6.321,-6.043c0.075,-3.46 -2.717,-6.32 -6.179,-6.318zm-11.954,3.299l0,0.082c0,4.515 -0.001,9.03 0,13.545c0,0.649 0.562,1.208 1.212,1.208c7.16,0.001 14.319,0.001 21.479,0c0.656,0 1.215,-0.557 1.215,-1.212c0.001,-4.509 0,-9.02 0,-13.528l0,-0.094l-2.912,0c0.411,1.313 0.537,2.651 0.376,4.014c-0.161,1.363 -0.601,2.631 -1.316,3.803s-1.644,2.145 -2.779,2.918c-2.944,2.006 -6.821,2.182 -9.946,0.428c-1.579,-0.885 -2.819,-2.12 -3.685,-3.713c-1.289,-2.373 -1.495,-4.865 -0.739,-7.451c-0.968,0 -1.93,0 -2.905,0zm24.159,18.139c0.159,-0.026 0.318,-0.049 0.475,-0.083c1.246,-0.265 2.264,-1.304 2.508,-2.557c0.025,-0.137 0.045,-0.273 0.067,-0.409l0,-24.412c-0.021,-0.133 -0.04,-0.268 -0.065,-0.401c-0.268,-1.367 -1.396,-2.428 -2.78,-2.618c-0.058,-0.007 -0.113,-0.02 -0.17,-0.03l-24.479,0c-0.147,0.027 -0.296,0.047 -0.441,0.08c-1.352,0.308 -2.352,1.396 -2.545,2.766c-0.008,0.057 -0.02,0.114 -0.029,0.171l0,24.478c0.028,0.154 0.05,0.311 0.085,0.465c0.299,1.322 1.427,2.347 2.77,2.52c0.064,0.008 0.13,0.021 0.195,0.03l24.409,0zm-12.205,14.745c-16.568,0 -30,-13.431 -30,-30s13.432,-30 30,-30s30,13.431 30,30s-13.432,30 -30,30z"/>
 </g>
</svg>