<svg width="1792" height="1792" xmlns="http://www.w3.org/2000/svg">

 <g>
  <title>background</title>
  <rect fill="none" id="canvas_background" height="402" width="582" y="-1" x="-1"/>
 </g>
 <g>
  <title>Layer 1</title>
  <path fill="#d0d0d0" id="svg_1" d="m1280,896q0,-37 -30,-54l-512,-320q-31,-20 -65,-2q-33,18 -33,56l0,640q0,38 33,56q16,8 31,8q20,0 34,-10l512,-320q-1250,-950 30,-54zm512,0q0,96 -1,150t-8.5,136.5t-22.5,147.5q-16,73 -69,123t-124,58q-222,25 -671,25t-671,-25q-71,-8 -124.5,-58t-69.5,-123q-14,-65 -21.5,-147.5t-8.5,-136.5t-1,-150t1,-150t8.5,-136.5t22.5,-147.5q16,-73 69,-123t124,-58q222,-25 671,-25t671,25q71,8 124.5,58t69.5,123q14,65 21.5,147.5t8.5,136.5t1,150z"/>
 </g>
</svg>